<?xml version="1.0" standalone="no"?>
<!DOCTYPE svg PUBLIC "-//W3C//DTD SVG 20010904//EN"
 "http://www.w3.org/TR/2001/REC-SVG-20010904/DTD/svg10.dtd">
<svg version="1.0" xmlns="http://www.w3.org/2000/svg"
 width="100.000000pt" height="100.000000pt" viewBox="0 0 100.000000 100.000000"
 preserveAspectRatio="xMidYMid meet">

<g transform="translate(0.000000,100.000000) scale(0.100000,-0.100000)"
fill="#000000" stroke="none">
<path d="M440 943 c-192 -32 -337 -178 -370 -372 -29 -174 69 -364 231 -445
136 -68 258 -68 396 -1 268 132 321 496 102 699 -102 95 -237 139 -359 119z
m30 -82 c0 -5 -13 -12 -29 -16 -17 -3 -46 -24 -65 -45 -57 -63 -61 -150 -10
-217 30 -40 67 -58 139 -68 107 -15 175 -87 175 -185 0 -56 -37 -121 -87 -152
-72 -44 -209 -23 -305 47 -92 67 -140 166 -141 285 0 93 26 166 84 233 58 68
101 91 237 126 1 1 2 -3 2 -8z m89 -107 c53 -44 40 -123 -25 -150 -29 -12 -39
-12 -68 0 -64 26 -76 97 -27 147 37 37 79 38 120 3z"/>
<path d="M465 408 c-75 -41 -50 -158 35 -158 82 0 112 118 39 155 -33 18 -47
18 -74 3z"/>
</g>
</svg>
